#!OML:ASF F:\VICON\USERDATA\INSTALL\rory3\rory3.ASF
:FULLY-SPECIFIED
:DEGREES
2473
root 2.67455 9.96233 -5.57817 342.544 -6.33636 360.002
lowerback 27.1776 -0.394602 0.116531
upperback 10.5095 -0.365616 3.01373
thorax -3.30001 -0.27556 3.33577
lowerneck -18.8496 -1.5332 -8.95678
upperneck 15.8767 -0.166545 2.79587
head 8.03855 -0.345813 2.37415
rclavicle 1.11319e-014 -4.21423e-014
rhumerus -37.9003 39.2665 -81.4024
rradius 94.938
rwrist 46.803
rhand -59.1626 -337.131
rfingers 7.12502
rthumb -31.3543 -724.464
lclavicle 1.11319e-014 -4.21423e-014
lhumerus -30.1587 -34.3933 84.8775
lradius 80.712
lwrist -14.8797
lhand -46.8533 12.5503
lfingers 7.12502
lthumb -19.5662 41.5857
rfemur -79.358 -14.2649 23.6312
rtibia 104.042
rfoot -2.1127 8.23945
rtoes 0.259514
lfemur -72.6803 20.516 -13.4865
ltibia 108.317
lfoot -14.2827 -19.3384
ltoes -7.12535
2474
root 2.67741 9.9506 -5.57174 342.508 -6.30013 360.171
lowerback 26.985 -0.392685 -0.0426264
upperback 10.4781 -0.4064 2.98339
thorax -3.24076 -0.298582 3.40223
lowerneck -19.0525 -1.44586 -8.62395
upperneck 15.6485 -0.0925882 2.65424
head 7.99119 -0.298516 2.27946
rclavicle 2.06736e-014 -2.14687e-014
rhumerus -37.725 38.7638 -81.4289
rradius 94.8469
rwrist 46.5307
rhand -58.6803 -336.689
rfingers 7.12502
rthumb -30.8946 -724.11
lclavicle 2.06736e-014 -2.14687e-014
lhumerus -30.2532 -34.4737 84.9049
lradius 80.6993
lwrist -14.744
lhand -46.8796 12.8325
lfingers 7.12502
lthumb -19.5915 41.8653
rfemur -79.2368 -14.3275 23.6847
rtibia 103.685
rfoot -1.47748 8.46437
rtoes 1.4982
lfemur -72.7337 20.5495 -13.6827
ltibia 108.453
lfoot -14.2537 -19.3464
ltoes -7.76929
2475
root 2.67727 9.94383 -5.57276 342.321 -6.31257 360.104
lowerback 27.0316 -0.434056 -0.00281896
upperback 10.475 -0.447247 3.01804
thorax -3.26356 -0.31869 3.43024
lowerneck -19.3929 -1.39022 -8.61286
upperneck 15.5928 -0.0178832 2.81277
head 8.02544 -0.243243 2.34076
rclavicle -3.85642e-014 -2.3059e-014
rhumerus -37.5436 38.2688 -81.4961
rradius 94.7432
rwrist 46.3175
rhand -58.1797 -336.56
rfingers 7.12502
rthumb -30.4173 -724.071
lclavicle -3.85642e-014 -2.3059e-014
lhumerus -30.3283 -34.4436 84.8956
lradius 80.7079
lwrist -14.5485
lhand -46.8121 12.6365
lfingers 7.12502
lthumb -19.5266 41.6759
rfemur -78.832 -14.3214 23.8814
rtibia 103.279
rfoot -0.671374 8.54998
rtoes 2.50491
lfemur -72.5873 20.5954 -13.5306
ltibia 108.567
lfoot -14.1905 -19.4304
ltoes -8.45781
2476
root 2.67741 9.93618 -5.57178 342.153 -6.35408 359.955
lowerback 27.0239 -0.500383 0.153671
upperback 10.4691 -0.491277 3.06718
thorax -3.26468 -0.338129 3.40672
lowerneck -19.6326 -1.33163 -8.64748
upperneck 15.509 0.0548813 3.01629
head 8.03279 -0.18662 2.42408
rclavicle -4.37326e-015 -7.95139e-016
rhumerus -37.4222 37.8062 -81.5982
rradius 94.6374
rwrist 46.2155
rhand -57.8271 -336.531
rfingers 7.12502
rthumb -30.081 -724.104
lclavicle -4.37326e-015 -7.95139e-016
lhumerus -30.3882 -34.423 84.8689
lradius 80.7192
lwrist -14.2621
lhand -46.7101 12.1847
lfingers 7.12502
lthumb -19.4286 41.2341
rfemur -78.406 -14.2787 24.1609
rtibia 102.859
rfoot 0.260379 8.48997
rtoes 2.25924
lfemur -72.4607 20.689 -13.3207
ltibia 108.665
lfoot -14.2607 -19.5073
ltoes -7.63114
2477
root 2.67926 9.92961 -5.56666 342.086 -6.28229 360.141
lowerback 26.8481 -0.525621 -0.0159361
upperback 10.4394 -0.568279 3.05174
thorax -3.20833 -0.379689 3.50593
lowerneck -19.8091 -1.35049 -8.94434
upperneck 15.3491 0.0748692 3.30441
head 8.00731 -0.160472 2.57083
rclavicle 3.91606e-014 -3.4191e-014
rhumerus -37.2707 37.3996 -81.6161
rradius 94.5254
rwrist 46.0915
rhand -57.4999 -336.401
rfingers 7.12502
rthumb -29.7687 -724.03
lclavicle 3.91606e-014 -3.4191e-014
lhumerus -30.4413 -34.3246 84.8914
lradius 80.7352
lwrist -14.0585
lhand -46.5158 11.8111
lfingers 7.12502
lthumb -19.2417 40.8792
rfemur -78.178 -14.3256 24.0582
rtibia 102.507
rfoot 1.31892 8.43332
rtoes 2.07622
lfemur -72.3989 20.6508 -13.5543
ltibia 108.726
lfoot -14.4352 -19.4179
ltoes -7.45
2478
root 2.67975 9.92288 -5.55992 341.973 -6.26074 360.399
lowerback 26.8632 -0.478745 -0.267731
upperback 10.367 -0.568451 3.03632
thorax -3.2931 -0.383419 3.6356
lowerneck -19.9603 -1.47748 -9.2928
upperneck 15.1133 -0.0142995 3.46837
head 7.96024 -0.200141 2.66912
rclavicle -8.34896e-015 6.36111e-015
rhumerus -37.2844 36.9142 -81.7018
rradius 94.5337
rwrist 45.7672
rhand -57.0011 -335.562
rfingers 7.12502
rthumb -29.2926 -723.275
lclavicle -8.34896e-015 6.36111e-015
lhumerus -30.518 -34.2452 84.9812
lradius 80.7225
lwrist -14.0403
lhand -46.3881 11.9491
lfingers 7.12502
lthumb -19.1189 41.0293
rfemur -77.8412 -14.292 23.8651
rtibia 102.18
rfoot 2.35949 8.32006
rtoes 4.11344
lfemur -72.2764 20.7118 -13.8046
ltibia 108.817
lfoot -14.5361 -19.3647
ltoes -8.66666
2479
root 2.67795 9.91429 -5.55165 341.81 -6.33102 360.467
lowerback 26.9954 -0.438661 -0.334877
upperback 10.3023 -0.528197 3.07508
thorax -3.42872 -0.36387 3.70952
lowerneck -20.1101 -1.56404 -9.46801
upperneck 14.873 -0.0693866 3.48777
head 7.90936 -0.227926 2.69448
rclavicle 1.51076e-014 -3.49861e-014
rhumerus -37.3793 36.4145 -81.852
rradius 94.6663
rwrist 45.3318
rhand -56.2684 -334.719
rfingers 7.12502
rthumb -28.5927 -722.552
lclavicle 1.51076e-014 -3.49861e-014
lhumerus -30.6313 -34.135 85.1165
lradius 80.6593
lwrist -14.1556
lhand -46.4504 12.0964
lfingers 7.12502
lthumb -19.1789 41.1708
rfemur -77.3628 -14.1444 23.8681
rtibia 101.89
rfoot 3.21439 8.22367
rtoes 8.9622
lfemur -72.1409 20.9108 -13.7844
ltibia 108.945
lfoot -14.5687 -19.4574
ltoes -9.48047
2480
root 2.67876 9.90589 -5.54509 341.772 -6.31168 360.508
lowerback 26.9036 -0.449439 -0.347551
upperback 10.2699 -0.542671 3.11759
thorax -3.41952 -0.371695 3.76607
lowerneck -20.1864 -1.58848 -9.58018
upperneck 14.5621 -0.0723234 3.5419
head 7.81839 -0.222163 2.72669
rclavicle 2.90226e-014 -1.35174e-014
rhumerus -37.2219 36.0543 -81.944
rradius 94.6256
rwrist 44.8944
rhand -55.5324 -335.097
rfingers 7.12502
rthumb -27.8893 -723.047
lclavicle 2.90226e-014 -1.35174e-014
lhumerus -30.6789 -33.9612 85.2431
lradius 80.6086
lwrist -14.1931
lhand -46.3124 11.9187
lfingers 7.12502
lthumb -19.0462 41.0062
rfemur -77.1069 -14.1185 23.8934
rtibia 101.692
rfoot 3.90494 8.34913
rtoes 14.9568
lfemur -72.1855 20.9403 -13.8437
ltibia 109.053
lfoot -14.5669 -19.4592
ltoes -9.46607
2481
root 2.67989 9.8978 -5.5404 341.82 -6.30029 360.492
lowerback 26.6921 -0.466288 -0.282301
upperback 10.2621 -0.547468 3.17041
thorax -3.3276 -0.374337 3.78283
lowerneck -20.4501 -1.63024 -9.72907
upperneck 14.3955 -0.0846284 3.686
head 7.80781 -0.216004 2.79676
rclavicle 1.19271e-014 2.22639e-014
rhumerus -36.9395 35.6917 -81.9802
rradius 94.4959
rwrist 44.5913
rhand -54.7691 -335.803
rfingers 7.12502
rthumb -27.1593 -723.868
lclavicle 1.19271e-014 2.22639e-014
lhumerus -30.537 -33.8427 85.2933
lradius 80.5108
lwrist -14.1511
lhand -46.0244 11.6019
lfingers 7.12502
lthumb -18.7691 40.7164
rfemur -76.9488 -14.0767 24.0059
rtibia 101.531
rfoot 4.15546 8.64177
rtoes 19.0024
lfemur -72.347 20.9624 -13.8785
ltibia 109.164
lfoot -14.5711 -19.4559
ltoes -9.49354
2482
root 2.67949 9.89187 -5.53742 341.81 -6.35441 360.416
lowerback 26.4967 -0.476666 -0.166897
upperback 10.3274 -0.53456 3.23252
thorax -3.16363 -0.36934 3.77517
lowerneck -20.9222 -1.64619 -9.7057
upperneck 14.3349 -0.0599744 3.67617
head 7.86489 -0.199541 2.79384
rclavicle 2.38542e-015 -2.22639e-014
rhumerus -36.6937 35.3168 -81.9506
rradius 94.5656
rwrist 44.3376
rhand -53.9858 -335.693
rfingers 7.12502
rthumb -26.4097 -723.874
lclavicle 2.38542e-015 -2.22639e-014
lhumerus -30.2096 -33.7308 85.1924
lradius 80.3451
lwrist -14.0991
lhand -45.7632 11.3253
lfingers 7.12502
lthumb -18.518 40.4639
rfemur -76.6621 -13.9325 24.1656
rtibia 101.399
rfoot 3.48421 8.70748
rtoes 19.3319
lfemur -72.423 21.064 -13.7959
ltibia 109.25
lfoot -14.6036 -19.4959
ltoes -9.81123
2483
root 2.67994 9.8888 -5.53542 341.74 -6.42355 360.467
lowerback 26.3946 -0.460995 -0.171726
upperback 10.381 -0.518771 3.24926
thorax -3.05637 -0.364035 3.7887
lowerneck -21.2162 -1.63483 -9.59441
upperneck 14.1442 -0.0205616 3.54268
head 7.84734 -0.181902 2.73422
rclavicle 1.15295e-014 -1.59028e-015
rhumerus -36.4265 35.0387 -81.9329
rradius 94.6399
rwrist 44.0586
rhand -53.2133 -335.597
rfingers 7.12502
rthumb -25.6701 -723.887
lclavicle 1.15295e-014 -1.59028e-015
lhumerus -30.0426 -33.4845 85.1562
lradius 80.2592
lwrist -14.2212
lhand -45.6283 11.1547
lfingers 7.12502
lthumb -18.3882 40.3055
rfemur -76.3363 -13.7325 24.1356
rtibia 101.356
rfoot 2.04388 8.54602
rtoes 16.9662
lfemur -72.3671 21.1722 -13.8169
ltibia 109.316
lfoot -14.6252 -19.4563
ltoes -10.0814
2484
root 2.67839 9.88468 -5.53184 341.68 -6.55189 360.47
lowerback 26.3952 -0.408234 -0.150725
upperback 10.3376 -0.442501 3.29722
thorax -3.10965 -0.325957 3.80843
lowerneck -21.2254 -1.63293 -9.52026
upperneck 13.8498 -0.0105055 3.38947
head 7.74968 -0.18149 2.66785
rclavicle 1.03368e-014 -9.54166e-015
rhumerus -36.2922 34.8163 -82.0172
rradius 94.6501
rwrist 43.7821
rhand -52.5027 -335.951
rfingers 7.12502
rthumb -24.9893 -724.336
lclavicle 1.03368e-014 -9.54166e-015
lhumerus -30.1807 -33.2185 85.3398
lradius 80.2737
lwrist -14.417
lhand -45.3818 11.126
lfingers 7.12502
lthumb -18.151 40.2991
rfemur -76.0929 -13.4121 24.1685
rtibia 101.393
rfoot 0.634285 8.21007
rtoes 14.2552
lfemur -72.312 21.358 -13.7225
ltibia 109.416
lfoot -14.5196 -19.4513
ltoes -10.0191
